<svg width="250" height="251" viewBox="0 0 250 251" fill="none" xmlns="http://www.w3.org/2000/svg">
<path d="M227.591 29.3162C231.728 30.1305 234.21 34.2022 233.383 38.2739L230.901 70.033L230.073 80.6194L246.621 82.2481L247.448 71.6617L249.93 40.7169C250.757 29.3162 244.138 18.7298 232.555 15.4724L194.497 3.25735L187.051 0V17.1011L188.705 17.9154L227.591 29.3162Z" fill="white"/>
<path d="M221.801 174.269L220.973 182.412L218.491 214.985C218.491 218.243 216.009 221.5 212.7 222.314L186.224 230.458L175.469 233.715L177.951 250.002L191.189 245.93L217.664 237.787C227.592 234.53 234.211 226.386 235.038 216.614L237.521 184.041L238.348 175.897L221.801 174.269Z" fill="white"/>
<path d="M22.408 29.3162C18.2712 30.9448 15.7892 34.2022 16.6165 38.2739L19.0986 70.033L19.926 80.6194L3.37881 82.2481L2.55145 70.8474L0.0693781 39.9025C-0.757979 28.5018 5.86088 17.9154 17.4439 14.6581L55.5023 2.44301L62.1212 0V17.1011L61.2938 17.9154L22.408 29.3162Z" fill="white"/>
<path d="M28.2073 174.269L29.0347 182.412L31.5167 214.985C31.5167 218.243 33.9988 221.5 37.3082 222.314L63.7837 230.458L74.5393 233.715L72.0573 250.002L58.8195 245.93L32.3441 237.787C22.4158 234.53 15.7969 226.386 14.9696 216.614L12.4875 184.041L11.6602 175.897L28.2073 174.269Z" fill="white"/>
<path d="M155.612 135.992C154.785 135.992 154.785 135.992 153.957 135.992C117.554 135.992 91.0781 135.992 54.6744 135.992C48.8829 135.992 44.7461 131.921 44.7461 126.22C44.7461 123.777 44.7461 122.149 44.7461 119.706C44.7461 114.005 48.8829 109.933 54.6744 109.933C55.5017 109.933 55.5017 109.933 56.3291 109.933C91.9055 109.933 118.381 109.933 153.957 109.933C154.785 109.933 155.612 109.933 156.439 109.933C155.612 109.119 155.612 109.119 155.612 109.119C144.856 98.5327 133.273 87.132 122.518 76.5456C119.208 73.2883 118.381 68.4023 120.863 65.1449C123.345 61.8876 125.827 59.4445 129.137 57.0015C132.446 54.5585 137.41 55.3729 140.72 58.6302C144.029 61.8876 148.166 65.9592 151.475 69.2166C167.195 84.689 182.915 100.161 198.635 115.634C200.289 117.263 201.117 118.077 201.944 119.706C203.599 122.963 202.771 126.22 199.462 129.478C196.153 132.735 192.016 136.807 188.706 140.064C172.987 155.536 156.439 171.823 140.72 187.296C138.238 189.739 135.755 190.553 132.446 190.553C129.964 190.553 128.309 189.739 127.482 188.11C125.827 186.481 124.172 184.853 122.518 183.224C118.381 179.152 119.208 174.266 122.518 170.194C132.446 160.422 141.547 151.465 151.475 141.693C152.303 139.25 154.785 137.621 155.612 135.992C156.439 135.992 156.439 135.992 155.612 135.992Z" fill="white"/>
</svg>
