<svg width="150" height="180" viewBox="0 0 150 180" fill="none" xmlns="http://www.w3.org/2000/svg">
<path fill-rule="evenodd" clip-rule="evenodd" d="M68.3378 40.8267C68.3378 40.8267 92.9559 59.8869 56.4259 98.2329C19.8958 136.579 48.1442 161.391 48.1442 161.391C48.1442 161.391 41.5643 167.707 45.308 180C45.308 180 30.1143 171.466 18.4963 156.992C1.69569 136.062 -8.565 104.033 37.5559 78.496C37.5559 78.496 67.9975 63.2704 61.8713 42.9696C61.8713 42.9696 65.6151 43.1952 68.3378 40.8267ZM75.3716 34.436C116.666 51.5789 110.162 80.6014 85.5065 104.962C70.3799 120.451 75.0693 137.143 75.0693 137.143C75.0693 137.143 56.615 148.571 50.262 158.496C50.262 158.496 23.5579 135.885 60.5476 98.3457C96.8513 61.5038 71.7412 39.0975 71.7412 39.0975L72.1809 38.6652C72.9892 37.8475 74.6909 36.0148 75.3716 34.436ZM114.095 118.496L78.0943 135.789C78.0943 135.789 73.4053 120.752 90.8004 103.158C108.195 85.5638 124.985 52.6314 76.8841 30.9772C76.8841 30.9772 77.7921 26.4659 74.6156 24.2103C130.129 22.556 149.945 88.7217 114.095 118.496ZM125.894 111.278C125.894 111.278 136.519 96.2134 135.272 75.9397C134.515 48.7217 113.339 19.5485 67.8083 21.2028C112.28 -16.2409 189.424 67.3682 125.894 111.278ZM29.085 24.3605C29.085 29.8868 38.3877 29.2102 38.3877 24.3605H65.842C71.2874 24.3605 75.1446 27.0673 71.5143 33.8342C67.884 40.6012 56.9931 39.4733 56.9931 39.4733C64.2537 54.5862 52.682 69.2478 37.2532 69.2478H20.9169C7.30318 69.2478 5.9418 75.3381 5.9418 75.3381C-2.68021 63.3832 3.89969 54.135 3.89969 54.135C3.89969 54.135 5.37454 59.9997 16.4924 59.9997C27.6102 59.9997 29.6522 49.2854 18.5344 49.2854H12.2948C6.96276 49.2854 3.67281 52.1049 3.67281 52.1049C3.67281 52.1049 2.87864 50.1876 0.836587 44.6613C-1.20547 39.135 0.950115 36.9921 2.42493 36.2026C3.89975 35.4132 7.07619 34.8493 7.07619 34.8493V32.2553C4.4669 32.4808 1.85769 34.0598 1.85769 34.0598C2.08458 24.3605 13.6562 24.3605 13.6562 24.3605H29.085ZM75.3714 0C93.5329 0 105.775 6.0149 115.683 14.0599C115.683 14.0599 88.985 -2.40587 62.6652 20.7519H24.2442C24.2442 20.7519 29.1606 12.0303 40.5807 12.0303C49.5811 12.0303 51.6232 7.44318 51.6232 7.44318L51.7202 7.28412C52.4273 6.20499 57.2793 0 75.3714 0Z" fill="#DB0000"/>
</svg>
