<svg width="760" height="620" viewBox="0 0 760 620" fill="none" xmlns="http://www.w3.org/2000/svg">
<mask id="mask0" mask-type="alpha" maskUnits="userSpaceOnUse" x="260" y="120" width="500" height="500">
<path d="M697.5 120H322.5C287.982 120 260 147.982 260 182.5V557.5C260 592.018 287.982 620 322.5 620H697.5C732.018 620 760 592.018 760 557.5V182.5C760 147.982 732.018 120 697.5 120Z" fill="white"/>
</mask>
<g mask="url(#mask0)">
<path opacity="0.416101" d="M697.5 120H322.5C287.982 120 260 147.982 260 182.5V557.5C260 592.018 287.982 620 322.5 620H697.5C732.018 620 760 592.018 760 557.5V182.5C760 147.982 732.018 120 697.5 120Z" fill="#BCA1A1"/>
<path d="M760 120H260V620H760V120Z" fill="white"/>
</g>
<path fill-rule="evenodd" clip-rule="evenodd" d="M721.903 351.466C719.057 349.751 712.797 347.74 707.677 347.792C695.433 347.914 687.516 353.794 687.516 365.063C687.516 375.878 697.378 378.613 707.06 382.826C715.224 386.378 719.18 391.89 719.18 398.383C719.18 404.14 712.377 409.71 705.327 408.061C691.723 404.875 690.008 391.622 689.495 390.91L687.888 391.768L688.528 405.855C688.656 408.132 696.67 410.632 705.451 410.632C715.819 410.632 725.861 404.882 725.861 392.502C725.861 384.54 719.306 378.294 710.4 374.741C703.118 371.836 695.062 370.331 695.062 360.409C695.062 353.72 700.439 349.842 706.319 350.118C711.514 350.364 718.758 358.189 720.294 364.45C721.655 365.553 722.646 363.961 722.646 363.961L721.903 351.466Z" fill="#231F20"/>
<path fill-rule="evenodd" clip-rule="evenodd" d="M399.934 347.058H408.681V361.772H408.938C410.611 356.555 414.469 345.586 428.106 345.586C438.525 345.586 443.8 354.683 443.8 365.249V410.734H435.051V375.416C435.051 364.447 435.051 354.683 426.048 354.683C414.469 354.683 408.681 373.009 408.681 384.515V410.734H399.934V347.058Z" fill="#ED1C2E"/>
<path fill-rule="evenodd" clip-rule="evenodd" d="M480.903 403.107C491.451 403.107 495.568 388.393 495.568 377.69C495.568 367.791 491.58 353.211 481.161 353.211C471.897 353.211 468.425 365.786 468.425 379.43C468.425 389.195 470.484 403.107 480.903 403.107ZM504.317 410.867C504.317 428.926 495.954 438.558 478.331 438.558C468.809 438.558 463.794 436.818 461.735 436.417V427.186C462.635 427.587 468.682 430.933 477.043 430.933C492.867 430.933 495.568 421.168 495.568 409.796V398.56H495.311C494.026 402.841 489.65 410.732 479.102 410.732C463.021 410.732 458.391 395.083 458.391 379.296C458.391 362.308 464.18 345.586 479.359 345.586C489.78 345.586 494.283 353.479 495.311 357.492H495.568V347.058H504.317V410.867Z" fill="#ED1C2E"/>
<path fill-rule="evenodd" clip-rule="evenodd" d="M328.4 361.272C337.473 366.529 347.324 372.192 347.324 386.885C347.324 406.295 332.548 413.036 315.826 413.036C306.236 413.036 297.55 410.746 295.217 410.206V399.422C297.161 400.231 306.106 404.275 316.992 404.275C328.011 404.275 336.307 398.613 336.307 388.367C336.307 377.853 328.79 373.944 321.4 369.63L313.494 365.048C305.198 360.194 294.18 355.071 294.18 340.917C294.18 324.876 306.494 317.057 322.955 317.057C331.511 317.057 338.511 318.809 341.621 319.483V329.863C339.419 328.919 331.642 325.82 322.048 325.82C311.809 325.82 305.198 331.346 305.198 339.973C305.198 348.195 313.105 352.511 320.104 356.555L328.4 361.272Z" fill="#ED1C2E"/>
<path fill-rule="evenodd" clip-rule="evenodd" d="M537.268 318.757C537.268 316.307 545.819 317.227 552.481 317.227C565.345 317.227 573.632 331.007 573.632 340.524C573.632 352.933 566.249 359.955 560.769 361.63C552.358 364.203 546.791 362.611 544.688 361.875C545.059 364.937 550.008 367.634 562.006 367.634C564.942 367.634 571.23 364.888 575.182 362.226C581.506 357.965 586.249 348.779 586.249 341.323C586.249 333.069 583.688 325.062 576.848 319.493C571.282 314.959 562 313.367 552.852 313.367C542.238 313.367 518.155 313.767 512.282 314.299C510.814 314.432 510.55 316.062 521.807 318.266C526.902 319.266 526.63 323.812 526.63 329.537V396.665C526.63 405.239 524.774 403.892 517.683 404.995C517.013 405.099 516.326 404.96 516.326 405.892C516.326 406.556 516.552 407.888 517.229 407.888C523.327 407.888 531.745 407.69 534.795 407.69C541.344 407.69 546.4 407.888 551.369 407.888C552.271 407.888 553.181 406.253 552.729 405.851C552.389 405.586 548.928 404.821 548.028 404.75C535.536 403.771 537.268 401.973 537.268 395.317V318.757Z" fill="#231F20"/>
<path fill-rule="evenodd" clip-rule="evenodd" d="M677.21 351.466C674.364 349.751 668.104 347.74 662.986 347.792C650.74 347.914 642.824 353.794 642.824 365.063C642.824 375.878 652.687 378.613 662.367 382.826C670.531 386.378 674.489 391.89 674.489 398.383C674.489 404.14 667.684 409.71 660.635 408.061C647.03 404.875 645.315 391.622 644.802 390.91L643.195 391.768L643.835 405.855C643.963 408.132 651.977 410.632 660.758 410.632C671.124 410.632 681.168 404.882 681.168 392.502C681.168 384.54 674.612 378.294 665.707 374.741C658.424 371.836 650.369 370.331 650.369 360.409C650.369 353.72 655.745 349.842 661.625 350.118C666.821 350.364 674.065 358.189 675.602 364.45C676.962 365.553 677.953 363.961 677.953 363.961L677.21 351.466Z" fill="#231F20"/>
<path fill-rule="evenodd" clip-rule="evenodd" d="M618.168 395.387C618.168 395.387 611.944 401.69 605.142 403.896C600.204 405.494 597.845 400.143 597.845 396.3C597.845 391.768 601.424 387.481 604.022 385.03C604.022 385.03 608.234 379.519 618.129 375.844L618.168 395.387ZM618.748 373.118C618.748 373.118 606.008 378.783 601.301 382.213C592.072 388.942 587.702 396.055 587.702 400.342C587.702 406.747 591.525 409.898 597.968 409.898C600.443 409.898 608.977 406.958 617.759 399.486C619.491 404.385 620.807 410.265 629.509 410.265C633.715 410.265 637.796 404.508 638.786 400.956L637.302 400.22C635.638 403.207 633.177 404.63 630.746 404.63C626.416 404.63 627.406 397.605 627.406 394.617V364.451C627.406 352.782 620.464 347.547 609.843 347.547C605.019 347.547 597.349 351.099 594.876 354.407C588.197 360.287 585.103 368.127 585.846 370.209C585.846 370.209 591.536 370.576 594.505 368.248C595.371 365.799 596.432 361.237 596.742 360.29C598.34 355.386 603.782 351.467 609.595 351.712C618.928 352.104 618.625 361.756 618.748 366.289V373.118Z" fill="#231F20"/>
<mask id="mask1" mask-type="alpha" maskUnits="userSpaceOnUse" x="323" y="302" width="91" height="43">
<path d="M323.727 302.205H413.206V344.253H323.727V302.205Z" fill="white"/>
</mask>
<g mask="url(#mask1)">
<path fill-rule="evenodd" clip-rule="evenodd" d="M335.295 340.179C331.379 340.179 327.524 339.928 323.727 339.486C331.602 342.553 340.169 344.254 349.144 344.254C377.941 344.254 402.649 326.916 413.206 302.205C395.216 325.293 367.019 340.179 335.295 340.179Z" fill="#231F20"/>
</g>
<path fill-rule="evenodd" clip-rule="evenodd" d="M373.04 316.722C373.04 321.879 368.819 326.059 363.612 326.059C358.405 326.059 354.184 321.879 354.184 316.722C354.184 311.565 358.405 307.385 363.612 307.385C368.819 307.385 373.04 311.565 373.04 316.722Z" fill="#231F20"/>
<path fill-rule="evenodd" clip-rule="evenodd" d="M381.913 361.602C381.324 358.781 380.145 356.344 379.346 354.915C379.133 354.493 378.888 354.092 378.62 353.709C378.566 353.626 378.525 353.567 378.525 353.567L378.518 353.566C376.784 351.179 374.03 349.629 370.92 349.629C366.334 349.629 362.505 352.987 361.613 357.454C361.557 357.616 361.513 357.783 361.491 357.957C360.843 363.14 361.999 372.527 365.591 390.146C368.611 404.96 369.429 432.563 369.378 440.979C369.367 442.746 369.378 440.979 369.184 445.68C368.934 451.757 367.181 467.894 369.407 463.712C372.133 458.596 378.857 426.013 381.913 403.667C384.969 381.32 382.854 366.11 381.913 361.602Z" fill="#231F20"/>
<rect width="510" height="240" rx="50" fill="#DB0000"/>
<path d="M179.045 176H156.485L105.925 99.2V176H83.365V63.04H105.925L156.485 140.48V63.04H179.045V176ZM222.019 80.96V110.24H262.019V127.52H222.019V157.92H266.819V176H199.459V63.04H266.819V80.96H222.019ZM431.681 63.04L404.001 176H376.161L355.041 94.08L333.761 176H306.081L278.401 63.04H302.881L320.161 150.56L342.561 63.04H367.361L389.921 150.56L407.201 63.04H431.681Z" fill="white"/>
</svg>
